<svg xmlns="http://www.w3.org/2000/svg" width="50" height="50" viewBox="0 0 50 50" fill="none">
  <path d="M35.5208 42.25C33.4792 44.2292 31.25 43.9167 29.1042 42.9792C26.8333 42.0208 24.75 41.9792 22.3542 42.9792C19.3542 44.2708 17.7708 43.8958 15.9792 42.25C5.81252 31.7708 7.31252 15.8125 18.8542 15.2292C21.6667 15.375 23.625 16.7708 25.2708 16.8958C27.7292 16.3958 30.0833 14.9583 32.7083 15.1458C35.8542 15.3958 38.2292 16.6458 39.7917 18.8958C33.2917 22.7917 34.8333 31.3542 40.7917 33.75C39.6042 36.875 38.0625 39.9792 35.5 42.2708L35.5208 42.25ZM25.0625 15.1042C24.75 10.4583 28.5208 6.625 32.8542 6.25C33.4583 11.625 27.9792 15.625 25.0625 15.1042Z" fill="black"/>
</svg>